HIERARCHY
ROOT hip
{
	OFFSET 0.000000 0.000000 0.000000 
	CHANNELS 6 Xposition Yposition Zposition Xrotation Zrotation Yrotation
	JOINT abdomen
	{
		OFFSET 0.000000 3.402643 0.000000 
		CHANNELS 3 Xrotation Zrotation Yrotation
		JOINT chest
		{
			OFFSET 0.000000 8.438565 -0.680529 
			CHANNELS 3 Xrotation Zrotation Yrotation
			JOINT neck
			{
				OFFSET 0.000000 10.207942 -0.272212 
				CHANNELS 3 Xrotation Zrotation Yrotation
				JOINT head
				{
					OFFSET 0.000000 3.130431 0.000000 
					CHANNELS 3 Xrotation Zrotation Yrotation
					End Site
					{
						OFFSET 0.000000 3.130435 0.000000 
					}
				}
			}
			JOINT lCollar
			{
				OFFSET 3.470700 6.669187 -0.816635 
				CHANNELS 3 Yrotation Zrotation Xrotation
				JOINT lShldr
				{
					OFFSET 3.198488 0.000000 0.000000 
					CHANNELS 3 Zrotation Yrotation Xrotation
					JOINT lForeArm
					{
						OFFSET 10.139888 0.000000 0.000000 
						CHANNELS 3 Yrotation Zrotation Xrotation
						JOINT lHand
						{
							OFFSET 8.370511 0.000000 0.000000 
							CHANNELS 3 Zrotation Yrotation Xrotation
							End Site
							{
								OFFSET 4.083176 0.000000 0.000000 
							}
						}
					}
				}
			}
			JOINT rCollar
			{
				OFFSET -3.470700 6.669187 -0.816635 
				CHANNELS 3 Yrotation Zrotation Xrotation
				JOINT rShldr
				{
					OFFSET -3.198488 0.000000 0.000000 
					CHANNELS 3 Zrotation Yrotation Xrotation
					JOINT rForeArm
					{
						OFFSET -10.139888 0.000000 0.000000 
						CHANNELS 3 Yrotation Zrotation Xrotation
						JOINT rHand
						{
							OFFSET -8.370511 0.000000 0.000000 
							CHANNELS 3 Zrotation Yrotation Xrotation
							End Site
							{
								OFFSET -4.083176 0.000000 0.000000 
							}
						}
					}
				}
			}
		}
	}
	JOINT lThigh
	{
		OFFSET 5.308129 -1.633274 1.361059 
		CHANNELS 3 Xrotation Zrotation Yrotation
		JOINT lShin
		{
			OFFSET -2.041588 -20.007561 0.000000 
			CHANNELS 3 Xrotation Zrotation Yrotation
			JOINT lFoot
			{
				OFFSET 0.000000 -19.190928 -1.224953 
				CHANNELS 3 Xrotation Yrotation Zrotation
				End Site
				{
					OFFSET 0.000000 -2.449906 4.627600 
				}
			}
		}
	}
	JOINT rThigh
	{
		OFFSET -5.308129 -1.633274 1.361059 
		CHANNELS 3 Xrotation Zrotation Yrotation
		JOINT rShin
		{
			OFFSET 2.041588 -20.007561 0.000000 
			CHANNELS 3 Xrotation Zrotation Yrotation
			JOINT rFoot
			{
				OFFSET 0.000000 -19.190928 -1.224953 
				CHANNELS 3 Xrotation Yrotation Zrotation
				End Site
				{
					OFFSET 0.000000 -2.449906 4.627600 
				}
			}
		}
	}
}
MOTION
Frames: 6
Frame Time: 0.011111
35.105370 52.511635 1.874286 18.043213 -1.355348 1.417427 49.986683 0.628244 -2.878615 -29.529900 1.276402 -0.868350 -20.955853 -0.978637 -0.231528 -23.310484 0.056117 -0.961761 0.736540 -9.814158 1.078738 -61.255901 -26.200071 24.161453 -60.186344 9.281294 12.475513 8.524705 12.647240 -28.489635 -3.299667 11.850037 1.750699 60.286499 18.626486 30.215609 63.013332 -9.439577 13.769178 -8.534408 -12.637552 70.091652 -38.414719 5.458724 2.534147 47.474041 -4.033756 -6.924232 -17.011423 5.011158 -1.453411 -40.338932 -3.837663 5.306586 47.878326 3.977048 6.963708 -17.829308 -5.511190 1.188560 
35.091309 52.821728 1.942057 17.896284 -1.357430 1.470352 49.457230 0.656902 -2.912941 -29.286041 1.384000 -0.891831 -21.278986 -0.964959 -0.107627 -22.451256 -0.001662 -0.674560 0.736540 -9.814158 1.078738 -61.614487 -25.734715 22.811146 -60.346935 9.296675 12.554880 8.524705 12.647240 -27.942762 -3.299667 11.850037 1.750699 59.990227 18.282557 29.888081 62.982594 -9.442801 13.765618 -8.534408 -12.637552 70.247910 -37.227028 5.447715 2.458644 45.692230 -4.199399 -6.732373 -16.139071 5.324696 -1.482590 -39.207092 -4.013402 5.013853 46.314129 4.113991 6.800062 -16.868311 -5.752169 1.276466 
35.051987 53.097607 1.987453 17.759197 -1.500896 1.580321 49.027153 0.751820 -2.825727 -29.227602 1.425091 -0.887794 -21.434792 -0.879995 -0.128703 -21.796490 -0.254250 -0.639928 0.736540 -9.814158 1.078738 -61.639690 -25.256418 22.039865 -60.251175 9.289343 12.508000 8.524705 12.647240 -27.249399 -3.299667 11.850037 1.750699 59.781731 17.897228 29.683605 62.853943 -9.437051 13.705782 -8.534408 -12.637552 70.335793 -36.255375 5.556008 2.156144 43.997402 -4.345393 -6.547088 -15.329902 5.620676 -1.545586 -38.032700 -3.993923 4.682957 44.778313 4.250667 6.616528 -15.976974 -6.058460 1.328602 
35.015224 53.356232 2.033806 17.522985 -1.427264 1.730533 48.695839 0.685977 -2.856275 -29.354507 1.403912 -0.887413 -21.395451 -1.053110 -0.250076 -21.161566 -0.128905 -0.968728 0.736540 -9.814158 1.078738 -61.500309 -24.590986 21.583891 -60.059418 9.274590 12.425796 8.524705 12.647240 -26.761120 -3.299667 11.850037 1.750699 59.727463 17.380869 29.200851 62.524303 -9.428308 13.557718 -8.534408 -12.637552 69.974472 -35.074974 5.438928 2.060569 42.389317 -4.475142 -6.378729 -14.710587 5.869532 -1.561885 -36.742302 -4.198837 4.330059 43.268715 4.387553 6.470811 -15.014701 -6.343862 1.412246 
34.990288 53.635632 2.105095 17.170630 -1.466990 1.836118 48.471867 0.749291 -2.810736 -29.246750 1.317357 -0.878638 -21.678482 -0.976609 -0.235067 -20.302176 -0.141518 -0.917362 0.736540 -9.814158 1.078738 -61.457462 -24.053440 20.894194 -60.016182 9.269013 12.402635 8.524705 12.647240 -26.516979 -3.299667 11.850037 1.750699 59.771729 17.203869 28.711185 62.065281 -9.407323 13.341743 -8.534408 -12.637552 69.505722 -33.740009 5.507927 2.146288 40.858578 -4.605814 -6.185670 -14.015192 5.973776 -1.639508 -35.355568 -4.276980 4.087506 41.779758 4.504886 6.278769 -14.120885 -6.520682 1.499199 
34.977821 53.893291 2.162957 16.965828 -1.616821 1.885521 48.113182 0.922444 -2.605779 -29.090080 1.177294 -0.839573 -21.863930 -0.832390 -0.185714 -19.765003 -0.320937 -0.710072 0.736540 -9.814158 1.078738 -61.471943 -23.643396 20.220478 -59.974319 9.268270 12.389414 8.524705 12.647240 -26.341198 -3.299667 11.850037 1.750699 59.875679 17.044851 28.265337 61.756256 -9.392552 13.197128 -8.534408 -12.637552 69.134621 -32.639072 5.682250 2.263041 39.404980 -4.715154 -6.028943 -13.077387 6.098192 -1.730835 -34.319439 -4.257784 4.143177 40.326920 4.628656 6.108787 -13.588160 -6.622500 1.573205 
